<svg width="60" height="60" viewBox="0 0 70 70" fill="none" xmlns="http://www.w3.org/2000/svg">
<rect width="70" height="70" rx="35" fill="#495E57"/>
<path d="M21.375 22.375H24.2917L24.875 25.2917M27.2083 36.9583H41.7917L47.625 25.2917H24.875M27.2083 36.9583L24.875 25.2917M27.2083 36.9583L23.8645 40.3021C22.9458 41.2208 23.5965 42.7917 24.8957 42.7917H41.7917M41.7917 42.7917C40.1808 42.7917 38.875 44.0975 38.875 45.7083C38.875 47.3192 40.1808 48.625 41.7917 48.625C43.4025 48.625 44.7083 47.3192 44.7083 45.7083C44.7083 44.0975 43.4025 42.7917 41.7917 42.7917ZM30.125 45.7083C30.125 47.3192 28.8192 48.625 27.2083 48.625C25.5975 48.625 24.2917 47.3192 24.2917 45.7083C24.2917 44.0975 25.5975 42.7917 27.2083 42.7917C28.8192 42.7917 30.125 44.0975 30.125 45.7083Z" stroke="#F4CE14" stroke-width="2" stroke-linecap="round" stroke-linejoin="round"/>
</svg>
